<?xml version="1.0" standalone="no"?>
<!DOCTYPE svg PUBLIC "-//W3C//DTD SVG 20010904//EN"
 "http://www.w3.org/TR/2001/REC-SVG-20010904/DTD/svg10.dtd">
<svg version="1.0" xmlns="http://www.w3.org/2000/svg"
 width="512.000000pt" height="512.000000pt" viewBox="0 0 512.000000 512.000000"
 preserveAspectRatio="xMidYMid meet">
<metadata>
Created by potrace 1.16, written by Peter Selinger 2001-2019
</metadata>
<g transform="translate(0.000000,512.000000) scale(0.100000,-0.100000)"
fill="#000000" stroke="none">
<path d="M2513 4999 c-18 -5 -44 -22 -60 -37 -15 -16 -181 -339 -384 -752
l-358 -725 -803 -117 c-518 -75 -814 -122 -833 -132 -16 -9 -41 -32 -54 -51
-20 -30 -23 -44 -19 -96 l4 -61 220 -217 c120 -119 386 -381 591 -581 l371
-365 -134 -775 c-73 -426 -134 -797 -134 -824 0 -90 59 -149 151 -150 41 0
119 39 763 377 394 207 721 377 726 377 5 0 332 -170 726 -377 644 -338 722
-377 763 -377 92 1 151 60 151 150 0 27 -61 398 -134 824 l-134 775 371 365
c205 200 471 462 591 581 l220 217 4 61 c4 52 1 66 -19 96 -13 19 -37 42 -54
51 -19 10 -315 57 -834 132 l-803 117 -138 280 c-538 1096 -586 1191 -621
1213 -42 25 -94 34 -136 21z"/>
</g>
</svg>
